# File generated by ImageToStl.com - Free Image and 3D model conversion tools

mtllib Cooked ham.mtl

o obj1
v 0.4551704 -0.15909089 -0.00045566
v 0.32046831 -0.29360731 0.07817016
v 0.32029301 -0.29345129 -0.07904712
v 0.45535099 -0.11666364 0.1158153
v 0.11890163 -0.38332642 0.10240488
v 0.11867256 -0.38312252 -0.10300932
v 0.45509171 -0.1164328 -0.11664227
v -0.11879553 -0.41463152 0.11110183
v -0.27309274 -0.28444327 0.28494898
v -0.27341878 -0.38847668 0.10434392
v -0.27365123 -0.38826977 -0.10408158
v -0.11904346 -0.41441065 -0.11123699
v 0.32023531 -0.21470747 -0.21512328
v 0.11859717 -0.28023882 -0.28080148
v -0.27372777 -0.2838778 -0.28448015
v -0.11912505 -0.30305016 -0.30367786
v -0.27372777 -0.2838778 -0.28448015
v -0.11901845 -0.1103889 -0.4146562
v -0.11912505 -0.30305016 -0.30367786
v -0.27337819 0.10515282 -0.38830714
v -0.11875228 0.11194974 -0.4144357
v -0.27362781 -0.10327262 -0.38851388
v 0.11894158 0.10317122 -0.38312848
v 0.11869562 -0.10224295 -0.38333226
v 0.11859717 -0.28023882 -0.28080148
v -0.37359034 -0.22398016 -0.224464
v -0.37351144 -0.08140767 -0.30658984
v -0.37331444 0.0831265 -0.30642666
v 0.32031068 -0.07847535 -0.29359698
v 0.45509171 -0.1164328 -0.11664227
v 0.32023531 -0.21470747 -0.21512328
v 0.45518344 -0.00016183 -0.15906969
v 0.32049888 0.07874185 -0.29344104
v 0.45537008 0.11602467 -0.11641175
v 0.32074957 0.2148178 -0.21469741
v -0.27304594 0.28555113 -0.28391537
v -0.11839772 0.30439039 -0.3030754
v 0.1192691 0.2809632 -0.28024494
v 0.32099555 0.29329127 -0.07846529
v 0.45555062 0.15845192 -0.00014074
v 0.11959043 0.38349356 -0.10224914
v 0.32117083 0.29313513 0.07875196
v -0.11804996 0.41536852 -0.11041415
v -0.27271998 0.38958458 -0.10331023
v 0.11981953 0.38328948 0.10316511
v -0.27276049 -0.10404504 0.38934084
v -0.37262975 0.08251671 0.30762353
v -0.37282675 -0.08201742 0.30746036
v -0.11782704 0.11112581 0.41534384
v -0.27251095 0.10438035 0.3895476
v -0.37308906 -0.22442645 0.2250519
v -0.27309274 -0.28444327 0.28494898
v -0.1180932 -0.11121279 0.41512334
v -0.1184477 -0.30365334 0.30376295
v 0.11922295 -0.28079605 0.28040066
v 0.11955047 -0.10300417 0.38328429
v 0.45562922 0.11579383 0.11604586
v 0.32122855 0.21439133 0.21482814
v -0.117802 0.4151476 0.11192463
v 0.11989489 0.2804058 0.28095729
v -0.37305218 0.22553558 -0.22401825
v 0.32115323 0.07815921 0.29330179
v 0.45553753 -0.00047713 0.15847327
v 0.1197964 0.10240996 0.38348798
v -0.11772044 0.30378719 0.30436543
v -0.37334643 -0.306552 0.0824795
v -0.3735299 -0.30638873 -0.08205472
v -0.37359034 -0.22398016 -0.224464
v -0.37308906 -0.22442645 0.2250519
v -0.27241099 0.28498558 0.28551387
v -0.37255085 0.22508922 0.22549775
v 0.32096494 -0.079058 0.29314588
v -0.27248745 0.38937756 0.10511533
v 0.45535099 -0.11666364 0.1158153
v 0.32071425 -0.21513399 0.21440223
v -0.37261122 0.3074978 0.08308845
v -0.1184477 -0.30365334 0.30376295
v 0.11922295 -0.28079605 0.28040066
v 0.32071425 -0.21513399 0.21440223
v -0.37279481 0.30766118 -0.08144582
v -0.47306339 0.14542954 -0.14407007
v -0.47289762 0.19831339 -0.05226212
v -0.47323224 0.05372672 -0.19713607
v -0.47325287 -0.19720255 0.0532958
v -0.47335913 -0.05222328 -0.19724118
v -0.47340994 -0.14403127 -0.14435716
v -0.4727914 0.05333404 0.1982749
v -0.47291825 -0.05261593 0.1981698
v -0.4727406 0.14514204 0.14539088
v -0.47337105 -0.19709738 -0.05265423
v -0.47308719 -0.14431871 0.14510373
v -0.47340994 -0.14403127 -0.14435716
v 0.45553753 -0.00047713 0.15847327
v 0.45535099 -0.11666364 0.1158153
v 0.43516648 -0.0666822 0.06598062
v 0.43527293 -0.00038482 0.09032175
v 0.43532536 0.06596086 0.06611217
v 0.45562922 0.11579383 0.11604586
v 0.45555062 0.15845192 -0.00014074
v 0.43528047 0.09030206 -0.00018533
v 0.43517752 0.06609258 -0.06653098
v 0.45537008 0.11602467 -0.11641175
v 0.45518344 -0.00016183 -0.15906969
v 0.43501863 -0.06655051 -0.06666252
v 0.45509171 -0.1164328 -0.11664227
v 0.43507102 -0.00020487 -0.09087214
v 0.4551704 -0.15909089 -0.00045566
v 0.43516648 -0.0666822 0.06598062
v 0.45535099 -0.11666364 0.1158153
v 0.43501863 -0.06655051 -0.06666252
v 0.43506348 -0.09089175 -0.00036501
v 0.45509171 -0.1164328 -0.11664227
v 0.66367774 -0.06435189 -0.05766725
v 0.43507102 -0.00020487 -0.09087214
v 0.66373209 -0.00049286 -0.07742272
v 0.43501863 -0.06655051 -0.06666252
v 0.66383062 0.06332682 -0.05754066
v 0.43528047 0.09030206 -0.00018533
v 0.66395793 0.06321346 0.05660467
v 0.6639075 0.07429941 -0.00045707
v 0.66383062 0.06332682 -0.05754066
v 0.43517752 0.06609258 -0.06653098
v 0.74064499 0.06527356 -0.00055176
v 0.7598286 0.09746204 -0.062065
v 0.71561979 0.06144501 -0.12081177
v 0.43517752 0.06609258 -0.06653098
v 0.43532536 0.06596086 0.06611217
v 0.75996583 0.09733987 0.06098084
v 0.66380487 -0.06446521 0.05647809
v 0.66372803 -0.07543782 -0.00060553
v 0.74048704 -0.06659608 -0.00068257
v 0.43506348 -0.09089175 -0.00036501
v 0.43516648 -0.0666822 0.06598062
v 0.75973091 -0.09883062 0.06078637
v 0.71573951 -0.06270788 0.11963293
v 0.66367774 -0.06435189 -0.05766725
v 0.43527293 -0.00038482 0.09032175
v 0.6639034 -0.00064556 0.07636009
v 0.43532536 0.06596086 0.06611217
v 0.66380487 -0.06446521 0.05647809
v 0.43516648 -0.0666822 0.06598062
v 0.71547143 -0.06246902 -0.12093463
v 0.71285986 -0.00048533 -0.14449377
v 0.71561979 0.06144501 -0.12081177
v 0.78392206 -0.06583138 -0.15060035
v 0.43501863 -0.06655051 -0.06666252
v 0.75959363 -0.09870846 -0.06225949
v 0.71547143 -0.06246902 -0.12093463
v 0.78253783 -0.0635654 -0.00072652
v 0.8575256 -0.06594466 0.11213695
v 0.83071664 -0.09598576 0.06070984
v 0.88445609 -0.05674 0.05751712
v 0.78425612 -0.066129 0.14913903
v 0.85742958 0.06434172 -0.11363295
v 0.83080735 0.094447 -0.06214732
v 0.88445982 0.05507223 -0.05907375
v 0.78407833 0.06470186 -0.15047088
v 0.82275318 0.05963028 -0.00064913
v 0.85204067 0.03415539 -0.00070716
v 0.85204067 0.03415539 -0.00070716
v 0.83094453 0.09432481 0.06089855
v 0.88458974 0.05495636 0.05762782
v 0.82275318 0.05963028 -0.00064913
v 0.78268833 0.06214217 -0.00060186
v 0.86185839 -0.00066448 -0.14418063
v 0.85742958 0.06434172 -0.11363295
v 0.89521734 -0.00078884 -0.05914119
v 0.88432617 -0.05662418 -0.05918441
v 0.87000765 -0.00081641 -0.00076194
v 0.78268833 0.06214217 -0.00060186
v 0.71588806 0.06120613 0.1197558
v 0.78441231 0.06440426 0.14926846
v 0.83094453 0.09432481 0.06089855
v 0.78392206 -0.06583138 -0.15060035
v 0.86217811 -0.00094928 0.14267464
v 0.89534735 -0.00090467 0.05756042
v 0.88458974 0.05495636 0.05762782
v 0.8575256 -0.06594466 0.11213695
v 0.78407833 0.06470186 -0.15047088
v 0.78398949 -0.00055536 -0.15999452
v 0.85768141 0.06411743 0.11226592
v 0.88445609 -0.05674 0.05751712
v 0.85195694 -0.03574506 -0.00077646
v 0.87000765 -0.00081641 -0.00076194
v 0.83071664 -0.09598576 0.06070984
v 0.71573951 -0.06270788 0.11963293
v 0.7131807 -0.00077109 0.14332101
v 0.71588806 0.06120613 0.1197558
v 0.78434469 -0.00087175 0.15866264
v 0.78441231 0.06440426 0.14926846
v 0.78425612 -0.066129 0.14913903
v 0.78253783 -0.0635654 -0.00072652
v 0.82260855 -0.06114971 -0.0007689
v 0.83071664 -0.09598576 0.06070984
v 0.83057946 -0.09586363 -0.062336
v 0.85195694 -0.03574506 -0.00077646
v 0.82260855 -0.06114971 -0.0007689
v 0.85727386 -0.06572036 -0.11376194
v 0.78253783 -0.0635654 -0.00072652
v 0.78268833 0.06214217 -0.00060186
v 0.82260855 -0.06114971 -0.0007689
v 0.83094453 0.09432481 0.06089855
v 0.85768141 0.06411743 0.11226592
v 0.85727386 -0.06572036 -0.11376194
v 0.89534735 -0.00090467 0.05756042
v -0.47308719 -0.14431871 0.14510373
v -0.47277943 0.19820817 0.05368794
v -0.49575362 0.00055541 0.00051685
v -0.47337105 -0.19709738 -0.05265423
v -0.47325287 -0.19720255 0.0532958
vn 0.7505 -0.66087 -0.00149
vn 0.5695 -0.79513 0.20843
vn 0.56903 -0.79471 -0.21128
vn 0.74857 -0.47018 0.46752
vn 0.27378 -0.92937 0.24764
vn 0.27322 -0.92887 -0.2501
vn 0.74752 -0.46925 -0.47012
vn -0.01812 -0.96602 0.25784
vn -0.40809 -0.64567 0.64542
vn -0.40864 -0.88167 0.23595
vn -0.40903 -0.88128 -0.23672
vn -0.0187 -0.9655 -0.25972
vn 0.57923 -0.57586 -0.57696
vn 0.27304 -0.67958 -0.6809
vn -0.40915 -0.64455 -0.64587
vn -0.01889 -0.70628 -0.70768
vn -0.01864 -0.2578 -0.96602
vn -0.40857 0.23773 -0.88122
vn -0.01802 0.25976 -0.96551
vn -0.40899 -0.23493 -0.88178
vn 0.27387 0.24946 -0.92885
vn 0.27328 -0.24828 -0.92934
vn -0.69453 -0.50821 -0.50927
vn -0.69444 -0.18499 -0.69537
vn -0.69422 0.1879 -0.69481
vn 0.56908 -0.20975 -0.79508
vn 0.75055 -0.00024 -0.66081
vn 0.56958 0.20996 -0.79466
vn 0.74865 0.46839 -0.46919
vn 0.58061 0.57561 -0.57582
vn -0.40801 0.64673 -0.64441
vn -0.0172 0.70772 -0.70628
vn 0.27467 0.68027 -0.67955
vn 0.57094 0.79376 -0.2097
vn 0.75208 0.65907 -0.00018
vn 0.27545 0.92871 -0.24825
vn 0.5714 0.79334 0.21
vn -0.01639 0.96606 -0.2578
vn -0.40746 0.8825 -0.23488
vn 0.276 0.92821 0.24948
vn -0.40753 -0.2366 0.88201
vn -0.69347 0.18634 0.69598
vn -0.69368 -0.18619 0.6958
vn -0.01586 0.25784 0.96606
vn -0.40711 0.2359 0.88239
vn -0.69397 -0.50886 0.50937
vn -0.01649 -0.25972 0.96554
vn -0.01731 -0.70768 0.70632
vn 0.27456 -0.68093 0.67894
vn 0.27535 -0.25012 0.92824
vn 0.74969 0.46746 0.46845
vn 0.58189 0.57447 0.57566
vn -0.01581 0.96554 0.25976
vn 0.27619 0.67892 0.68029
vn -0.69393 0.51041 -0.50788
vn 0.57136 0.20838 0.79381
vn 0.75202 -0.00155 0.65913
vn 0.27595 0.24762 0.92873
vn -0.01562 0.70632 0.70772
vn -0.69426 -0.69515 0.18647
vn -0.69446 -0.69496 -0.18643
vn -0.40695 0.64529 0.64653
vn -0.69338 0.50904 0.51
vn 0.57085 -0.21132 0.79339
vn -0.40707 0.88195 0.23761
vn 0.58051 -0.577 0.57452
vn -0.69344 0.69564 0.18766
vn -0.69364 0.69619 -0.18486
vn -0.89535 0.3162 -0.31362
vn -0.89508 0.43112 -0.11385
vn -0.89563 0.11673 -0.42921
vn -0.89567 -0.42939 0.11581
vn -0.89584 -0.11388 -0.42954
vn -0.89592 -0.31376 -0.31445
vn -0.89491 0.11578 0.43097
vn -0.89512 -0.11464 0.43084
vn -0.89483 0.31538 0.31594
vn -0.89586 -0.42925 -0.1148
vn -0.89539 -0.31419 0.31552
vn 0.95852 -0.00086 -0.28501
vn 0.96146 0.19351 -0.19534
vn 0.96146 0.1935 -0.19534
vn 0.95852 -0.00087 -0.28501
vn 0.96099 -0.19542 -0.19573
vn 0.96099 -0.19542 -0.19573
vn 0.9585 -0.28509 -0.00135
vn 0.9585 -0.28509 -0.00135
vn 0.96142 -0.1958 0.19319
vn 0.96142 -0.1958 0.1932
vn 0.95916 -0.00143 0.28287
vn 0.96189 0.19312 0.19358
vn 0.96189 0.19312 0.19358
vn 0.95916 -0.00143 0.28287
vn 0.95918 0.28279 -0.00079
vn 0.95918 0.28279 -0.00079
vn 0.04778 -0.31959 -0.94635
vn 0.05085 0.00093 -0.99871
vn 0.05085 0.00093 -0.99871
vn 0.04855 0.32135 -0.94572
vn 0.04676 0.99891 0.00094
vn -0.08479 0.98418 0.15557
vn 0.08182 0.99665 0.0009
vn -0.08514 0.98449 -0.15342
vn 0.04465 0.96072 -0.27391
vn -0.07392 0.99726 0.00107
vn -0.12402 0.99113 0.04769
vn -0.50256 0.61451 -0.60812
vn 0.04527 0.96017 0.27571
vn -0.12413 0.99122 -0.04545
vn -0.08715 -0.98428 0.15361
vn 0.07943 -0.99684 -0.00108
vn -0.07631 -0.99708 -0.00091
vn 0.04436 -0.99901 -0.00104
vn 0.04296 -0.96082 0.27381
vn -0.1265 -0.99083 -0.04742
vn -0.50267 -0.61331 0.60924
vn -0.0875 -0.98397 -0.15537
vn 0.05067 0.31947 0.94624
vn 0.05308 -0.00105 0.99859
vn 0.05308 -0.00105 0.99859
vn 0.0499 -0.32146 0.94561
vn -0.75646 -0.19271 -0.62501
vn -0.78637 0.00155 -0.61775
vn -0.50403 -0.6121 -0.60934
vn -0.56356 0.00149 -0.82608
vn -0.75599 0.19576 -0.62462
vn -0.00307 -0.60662 -0.79498
vn 0.04235 -0.96028 -0.27581
vn -0.1264 -0.99092 0.04573
vn 0.05199 -0.87272 0.48545
vn 0.59509 -0.62301 0.50767
vn 0.30464 -0.94766 -0.09555
vn 0.84875 -0.51935 -0.09952
vn -0.0013 -0.6082 0.79378
vn 0.59545 0.62158 -0.509
vn 0.30712 0.94693 0.09485
vn 0.85021 0.51732 0.09762
vn -0.00161 0.6082 -0.79378
vn 0.30893 0.80022 0.51402
vn 0.64172 0.55146 0.533
vn 0.64053 0.55251 -0.53334
vn 0.30691 0.94712 -0.09367
vn 0.84999 0.51751 -0.0985
vn 0.30779 0.80123 -0.51312
vn 0.053 0.87259 -0.48558
vn 0.64414 -1E-05 -0.7649
vn 0.99987 -0.00121 0.01612
vn 0.84897 -0.51954 0.0966
vn 0.8603 -0.00153 0.50979
vn -0.50119 0.6133 0.61046
vn 0.00016 0.60663 0.79499
vn 0.64585 -0.00153 0.76346
vn 0.99983 -0.00118 -0.01836
vn -0.00699 0.001 -0.99998
vn 0.59658 0.62057 0.5089
vn 0.6392 -0.55298 -0.53444
vn 0.85916 -0.00052 -0.51171
vn -0.78499 0.00033 0.6195
vn -0.75506 -0.19395 0.62631
vn -0.56171 -0.00015 0.82733
vn -0.00476 -0.00099 0.99999
vn 0.05408 0.87163 0.48718
vn 0.0509 -0.87175 -0.4873
vn 0.30586 -0.80095 -0.51471
vn 0.30485 -0.94785 0.09298
vn 0.64039 -0.55405 0.53191
vn 0.30701 -0.80197 0.51243
vn 0.59395 -0.622 -0.51023
vn -0.75459 0.19452 0.6267
vn -0.89489 0.4308 0.11656
vn -1 0.00118 0.0011
vt 0.8544 0.81893
vt 0.8443 0.79632
vt 0.84429 0.79635
vt 0.85441 0.82606
vt 0.82918 0.78125
vt 0.82916 0.78128
vt 0.8544 0.8261
vt 0.81136 0.77599
vt 0.79978 0.79786
vt 0.79976 0.78038
vt 0.79974 0.78042
vt 0.81134 0.77602
vt 0.84428 0.80958
vt 0.82916 0.79857
vt 0.79974 0.79796
vt 0.81133 0.79474
vt 0.79974 0.81358
vt 0.81134 0.85836
vt 0.81133 0.81036
vt 0.79976 0.89458
vt 0.81136 0.89572
vt 0.79974 0.85956
vt 0.82919 0.89425
vt 0.82917 0.85973
vt 0.82916 0.8142
vt 0.79225 0.82365
vt 0.79225 0.86323
vt 0.79227 0.89088
vt 0.84429 0.86372
vt 0.8544 0.84172
vt 0.84428 0.82521
vt 0.8544 0.87688
vt 0.8443 0.89014
vt 0.85442 0.89641
vt 0.84432 0.94426
vt 0.79979 0.95615
vt 0.81139 0.95931
vt 0.82921 0.95537
vt 0.84434 0.95745
vt 0.85443 0.90354
vt 0.82923 0.9726
vt 0.84435 0.95742
vt 0.81141 0.97796
vt 0.79981 0.97363
vt 0.82925 0.97257
vt 0.79981 0.85943
vt 0.79232 0.89078
vt 0.7923 0.86313
vt 0.81143 0.89559
vt 0.79983 0.89445
vt 0.79228 0.82357
vt 0.79978 0.81349
vt 0.81141 0.85822
vt 0.81138 0.81026
vt 0.82921 0.8141
vt 0.82923 0.8596
vt 0.85444 0.89637
vt 0.84436 0.94419
vt 0.81143 0.97792
vt 0.82926 0.95528
vt 0.79229 0.94606
vt 0.84435 0.89005
vt 0.85443 0.87683
vt 0.82925 0.89412
vt 0.81144 0.95921
vt 0.79226 0.79415
vt 0.79225 0.79418
vt 0.79225 0.80802
vt 0.79228 0.80795
vt 0.79983 0.95605
vt 0.79232 0.94599
vt 0.84434 0.86363
vt 0.79983 0.97359
vt 0.85441 0.84168
vt 0.84432 0.82514
vt 0.79232 0.95983
vt 0.81138 0.79464
vt 0.82921 0.79848
vt 0.84432 0.80951
vt 0.79231 0.95986
vt 0.78479 0.90135
vt 0.7848 0.91024
vt 0.78477 0.88594
vt 0.78477 0.81252
vt 0.78476 0.86814
vt 0.78476 0.83708
vt 0.78481 0.88587
vt 0.7848 0.86807
vt 0.78481 0.9013
vt 0.78476 0.81254
vt 0.78478 0.83704
vt 0.78476 0.82146
vt 0.85443 0.84558
vt 0.85441 0.81043
vt 0.8529 0.81883
vt 0.85291 0.8456
vt 0.85291 0.85675
vt 0.85444 0.86512
vt 0.85443 0.87229
vt 0.85291 0.86084
vt 0.8529 0.85677
vt 0.85442 0.86516
vt 0.8544 0.84563
vt 0.85289 0.81885
vt 0.8544 0.81047
vt 0.85289 0.84563
vt 0.8544 0.78768
vt 0.8529 0.80321
vt 0.85441 0.79481
vt 0.85289 0.80323
vt 0.85289 0.79914
vt 0.8544 0.79485
vt 0.5649 0.57522
vt 0.60478 0.57161
vt 0.5649 0.57156
vt 0.60478 0.57539
vt 0.60478 0.617
vt 0.5649 0.64498
vt 0.5649 0.617
vt 0.5649 0.60647
vt 0.60478 0.60664
vt 0.55073 0.617
vt 0.54718 0.60565
vt 0.55533 0.59481
vt 0.60478 0.62735
vt 0.54718 0.62053
vt 0.5649 0.62752
vt 0.55533 0.63918
vt 0.60478 0.66239
vt 0.60478 0.6586
vt 0.5649 0.65877
vt 0.55533 0.56356
vt 0.55582 0.5592
vt 0.54268 0.5581
vt 0.54297 0.5545
vt 0.52914 0.63783
vt 0.53407 0.62834
vt 0.52316 0.63557
vt 0.54268 0.64464
vt 0.52914 0.59616
vt 0.53407 0.60565
vt 0.52416 0.59061
vt 0.54268 0.58935
vt 0.53557 0.50762
vt 0.53015 0.50762
vt 0.53015 0.5283
vt 0.53407 0.59943
vt 0.52316 0.61489
vt 0.53557 0.5283
vt 0.54297 0.54945
vt 0.5283 0.55929
vt 0.52914 0.56491
vt 0.52216 0.59061
vt 0.52683 0.50762
vt 0.54297 0.5545
vt 0.5283 0.6747
vt 0.52914 0.66908
vt 0.54268 0.55636
vt 0.52683 0.5283
vt 0.55533 0.67043
vt 0.55582 0.67479
vt 0.54268 0.67763
vt 0.54268 0.67589
vt 0.54297 0.56002
vt 0.53557 0.53888
vt 0.53407 0.61
vt 0.54297 0.53887
vt 0.54297 0.53887
vt 0.53407 0.61272
vt 0.78478 0.82141
vt 0.78481 0.91022
vt 0.78308 0.877
vt 0.78476 0.82817
vt 0.78477 0.82815
usemtl mat0
f 1/1/1 2/2/2 3/3/3
f 1/1/1 4/4/4 2/2/2
f 3/3/3 5/5/5 6/6/6
f 3/3/3 7/7/7 1/1/1
f 8/8/8 6/6/6 5/5/5
f 8/8/8 9/9/9 10/10/10
f 8/8/8 11/11/11 12/12/12
f 6/6/6 13/13/13 3/3/3
f 6/6/6 8/8/8 12/12/12
f 5/5/5 3/3/3 2/2/2
f 12/12/12 14/14/14 6/6/6
f 12/12/12 15/15/15 16/16/16
f 17/17/15 18/18/17 19/19/16
f 18/18/17 20/20/18 21/21/19
f 18/18/17 17/17/15 22/22/20
f 18/18/17 23/23/21 24/24/22
f 19/19/16 18/18/17 25/25/14
f 22/22/20 26/26/23 27/27/24
f 22/22/20 28/28/25 20/20/18
f 13/13/13 6/6/6 14/14/14
f 14/14/14 12/12/12 16/16/16
f 7/7/7 3/3/3 13/13/13
f 29/29/26 30/30/7 31/31/13
f 29/29/26 32/32/27 30/30/7
f 32/32/27 29/29/26 33/33/28
f 31/31/13 24/24/22 29/29/26
f 25/25/14 24/24/22 31/31/13
f 25/25/14 18/18/17 24/24/22
f 24/24/22 33/33/28 29/29/26
f 33/33/28 24/24/22 23/23/21
f 33/33/28 34/34/29 32/32/27
f 23/23/21 18/18/17 21/21/19
f 23/23/21 35/35/30 33/33/28
f 21/21/19 36/36/31 37/37/32
f 21/21/19 38/38/33 23/23/21
f 35/35/30 23/23/21 38/38/33
f 38/38/33 21/21/19 37/37/32
f 34/34/29 33/33/28 35/35/30
f 34/34/29 39/39/34 40/40/35
f 41/41/36 42/42/37 39/39/34
f 41/41/36 35/35/30 38/38/33
f 41/41/36 39/39/34 35/35/30
f 39/39/34 34/34/29 35/35/30
f 40/40/35 39/39/34 42/42/37
f 43/43/38 38/38/33 37/37/32
f 43/43/38 36/36/31 44/44/39
f 43/43/38 45/45/40 41/41/36
f 43/43/38 41/41/36 38/38/33
f 46/46/41 47/47/42 48/48/43
f 46/46/41 49/49/44 50/50/45
f 46/46/41 51/51/46 52/52/9
f 46/46/41 52/52/9 53/53/47
f 53/53/47 52/52/9 54/54/48
f 53/53/47 55/55/49 56/56/50
f 42/42/37 57/57/51 40/40/35
f 42/42/37 41/41/36 45/45/40
f 45/45/40 58/58/52 42/42/37
f 45/45/40 43/43/38 59/59/53
f 59/59/53 60/60/54 45/45/40
f 20/20/18 61/61/55 36/36/31
f 20/20/18 18/18/17 22/22/20
f 20/20/18 36/36/31 21/21/19
f 57/57/51 62/62/56 63/63/57
f 57/57/51 42/42/37 58/58/52
f 58/58/52 62/62/56 57/57/51
f 58/58/52 45/45/40 60/60/54
f 58/58/52 64/64/58 62/62/56
f 60/60/54 49/49/44 64/64/58
f 60/60/54 59/59/53 65/65/59
f 60/60/54 64/64/58 58/58/52
f 65/65/59 49/49/44 60/60/54
f 11/11/11 66/66/60 67/67/61
f 11/11/11 68/68/23 15/15/15
f 11/11/11 8/8/8 10/10/10
f 11/11/11 15/15/15 12/12/12
f 10/10/10 69/69/46 66/66/60
f 49/49/44 46/46/41 53/53/47
f 49/49/44 70/70/62 50/50/45
f 49/49/44 56/56/50 64/64/58
f 50/50/45 71/71/63 47/47/42
f 64/64/58 72/72/64 62/62/56
f 70/70/62 49/49/44 65/65/59
f 70/70/62 65/65/59 59/59/53
f 70/70/62 59/59/53 73/73/65
f 63/63/57 62/62/56 72/72/64
f 36/36/31 43/43/38 37/37/32
f 72/72/64 64/64/58 56/56/50
f 72/72/64 74/74/4 63/63/57
f 56/56/50 49/49/44 53/53/47
f 56/56/50 75/75/66 72/72/64
f 73/73/65 71/71/63 70/70/62
f 73/73/65 43/43/38 44/44/39
f 73/73/65 59/59/53 43/43/38
f 44/44/39 36/36/31 61/61/55
f 44/44/39 76/76/67 73/73/65
f 74/74/4 72/72/64 75/75/66
f 75/75/66 56/56/50 55/55/49
f 55/55/49 53/53/47 54/54/48
f 9/9/9 8/8/8 77/77/48
f 77/77/48 8/8/8 78/78/49
f 78/78/49 5/5/5 79/79/66
f 78/78/49 8/8/8 5/5/5
f 79/79/66 5/5/5 2/2/2
f 4/4/4 79/79/66 2/2/2
f 80/80/68 81/81/69 82/82/70
f 80/80/68 44/44/39 61/61/55
f 61/61/55 20/20/18 28/28/25
f 61/61/55 83/83/71 81/81/69
f 69/69/46 84/84/72 66/66/60
f 69/69/46 10/10/10 9/9/9
f 66/66/60 11/11/11 10/10/10
f 28/28/25 27/27/24 85/85/73
f 28/28/25 85/85/73 83/83/71
f 28/28/25 22/22/20 27/27/24
f 27/27/24 26/26/23 86/86/74
f 71/71/63 87/87/75 47/47/42
f 71/71/63 73/73/65 76/76/67
f 71/71/63 50/50/45 70/70/62
f 47/47/42 88/88/76 48/48/43
f 47/47/42 46/46/41 50/50/45
f 76/76/67 89/89/77 71/71/63
f 76/76/67 80/80/68 82/82/70
f 76/76/67 44/44/39 80/80/68
f 67/67/61 90/90/78 68/68/23
f 67/67/61 84/84/72 90/90/78
f 48/48/43 91/91/79 51/51/46
f 68/68/23 90/90/78 92/92/74
f 68/68/23 11/11/11 67/67/61
f 26/26/23 22/22/20 17/17/15
f 51/51/46 46/46/41 48/48/43
f 93/93/80 94/94/81 95/95/82
f 93/93/80 95/95/82 96/96/83
f 93/93/80 97/97/84 98/98/85
f 97/97/84 99/99/86 98/98/85
f 97/97/84 100/100/87 99/99/86
f 97/97/84 93/93/80 96/96/83
f 99/99/86 101/101/88 102/102/89
f 101/101/88 103/103/90 102/102/89
f 101/101/88 99/99/86 100/100/87
f 103/103/90 104/104/91 105/105/92
f 103/103/90 101/101/88 106/106/93
f 104/104/91 103/103/90 106/106/93
f 107/107/94 108/108/82 109/109/81
f 107/107/94 110/110/91 111/111/95
f 107/107/94 112/112/92 110/110/91
f 108/108/82 107/107/94 111/111/95
f 113/113/96 114/114/97 115/115/98
f 113/113/96 116/116/96 114/114/97
f 114/114/97 117/113/99 115/115/98
f 118/117/100 119/118/101 120/119/102
f 118/117/100 121/120/103 122/121/104
f 118/117/100 120/119/102 121/120/103
f 120/119/102 119/118/101 123/122/105
f 121/120/103 124/123/106 125/124/107
f 121/120/103 120/119/102 123/122/105
f 117/113/99 114/114/97 126/116/99
f 119/118/101 118/117/100 127/125/108
f 119/118/101 128/126/109 123/122/105
f 129/127/110 130/119/111 131/122/112
f 129/127/110 132/117/113 130/119/111
f 129/127/110 133/125/114 132/117/113
f 129/127/110 134/126/115 135/128/116
f 132/117/113 136/120/117 130/119/111
f 130/119/111 136/120/117 131/122/112
f 119/118/118 137/129/119 138/118/120
f 119/118/118 139/130/118 137/129/119
f 137/129/119 140/131/121 138/118/120
f 140/131/121 137/129/119 141/130/121
f 113/113/122 115/115/123 142/132/124
f 115/115/123 143/133/125 142/132/124
f 115/115/123 117/113/126 144/132/107
f 115/115/123 144/132/107 143/133/125
f 142/132/124 143/133/125 145/134/127
f 136/120/117 132/117/113 146/121/128
f 136/120/117 147/123/129 131/122/112
f 147/123/129 136/120/117 148/124/124
f 131/122/112 147/123/129 149/135/130
f 150/136/131 151/137/132 152/138/133
f 150/136/131 153/139/134 151/137/132
f 154/140/135 155/141/136 156/142/137
f 154/140/135 157/143/138 155/141/136
f 155/141/136 158/144/139 159/145/140
f 160/146/141 161/147/142 162/148/143
f 161/147/142 160/146/141 163/149/144
f 163/149/144 164/150/145 161/147/142
f 165/151/146 166/152/135 156/142/137
f 165/151/146 167/153/147 168/142/148
f 167/153/147 165/151/146 156/142/137
f 168/142/148 167/153/147 169/154/149
f 123/122/105 128/126/109 170/155/145
f 128/126/109 119/118/101 171/128/150
f 128/126/109 171/128/150 172/139/151
f 128/126/109 172/139/151 173/137/142
f 148/124/124 174/143/127 147/123/129
f 175/156/152 176/138/153 177/138/143
f 175/156/152 178/157/131 152/138/133
f 176/138/153 175/156/152 152/138/133
f 143/133/125 144/132/107 179/134/138
f 143/133/125 180/158/154 145/134/127
f 179/134/138 166/152/135 165/151/146
f 172/139/151 181/136/155 173/137/142
f 182/148/133 183/146/156 184/159/157
f 183/146/156 182/148/133 185/147/132
f 184/159/157 160/146/141 162/148/143
f 138/118/158 140/131/159 186/160/116
f 138/118/158 186/160/116 187/161/160
f 138/118/158 187/161/160 188/160/150
f 187/161/160 189/162/161 190/163/151
f 187/161/160 186/160/116 191/163/134
f 191/163/134 178/157/131 175/156/152
f 188/160/150 187/161/160 190/163/151
f 124/123/106 123/122/105 170/155/162
f 124/123/106 121/120/103 123/122/105
f 124/123/106 170/155/162 155/141/136
f 159/145/140 156/142/137 155/141/136
f 159/145/140 169/154/149 156/142/137
f 134/126/115 131/122/112 149/135/163
f 134/126/115 129/127/110 131/122/112
f 134/126/115 149/135/163 151/137/132
f 192/164/163 193/165/164 194/166/132
f 135/128/116 134/126/115 153/139/134
f 169/154/149 167/153/147 156/142/137
f 195/141/165 196/145/166 197/144/167
f 195/141/165 147/123/129 174/143/127
f 195/141/165 198/140/168 168/142/148
f 196/145/166 195/141/165 168/142/148
f 196/145/166 168/142/148 169/154/149
f 197/144/167 199/167/130 195/141/165
f 153/139/134 134/126/115 151/137/132
f 189/162/161 191/163/134 175/156/152
f 189/162/161 187/161/160 191/163/134
f 190/163/151 189/162/161 175/156/152
f 173/137/142 181/136/155 177/138/143
f 180/158/154 143/133/125 179/134/138
f 180/158/154 179/134/138 165/151/146
f 145/134/127 180/158/154 165/151/146
f 198/140/168 195/141/165 174/143/127
f 157/143/138 124/123/106 155/141/136
f 157/143/138 125/124/107 124/123/106
f 200/168/162 158/144/139 155/141/136
f 185/147/132 201/149/164 183/146/156
f 200/168/145 128/126/109 202/169/142
f 149/135/130 147/123/129 195/141/165
f 119/118/169 138/118/158 188/160/150
f 203/157/155 190/163/151 175/156/152
f 203/157/155 175/156/152 177/138/143
f 204/152/168 165/151/146 168/142/148
f 204/152/168 145/134/127 165/151/146
f 205/148/153 184/159/157 162/148/143
f 205/148/153 182/148/133 184/159/157
f 81/81/69 80/80/68 61/61/55
f 84/84/72 67/67/61 66/66/60
f 84/84/72 69/69/46 206/170/79
f 85/85/73 27/27/24 86/86/74
f 83/83/71 61/61/55 28/28/25
f 87/87/75 71/71/63 89/89/77
f 89/89/77 76/76/67 207/171/170
f 207/171/170 76/76/67 82/82/70
f 88/88/76 47/47/42 87/87/75
f 91/91/79 48/48/43 88/88/76
f 208/172/171 209/173/78 210/174/72
f 208/172/171 210/174/72 91/91/79
f 208/172/171 91/91/79 88/88/76
f 208/172/171 88/88/76 87/87/75
f 208/172/171 87/87/75 89/89/77
f 208/172/171 89/89/77 207/171/170
f 208/172/171 207/171/170 82/82/70
f 208/172/171 82/82/70 81/81/69
f 208/172/171 81/81/69 83/83/71
f 208/172/171 83/83/71 85/85/73
f 208/172/171 85/85/73 86/86/74
f 208/172/171 86/86/74 209/173/78
# Vertices: 210, normals: 171, texture coordinates: 174, faces: 272

